<svg width="715" height="352" viewBox="0 0 715 352" fill="none" xmlns="http://www.w3.org/2000/svg">
<path d="M616.947 146.432C613.849 146.833 604.713 146.658 601.174 146.646L571.722 146.558L475.535 146.613C459.095 146.607 439.011 143.709 425.381 153.074C413.38 161.316 401.397 169.904 389.384 178.144L242.983 280.212L198.657 311.241C191.055 316.562 180.993 324.05 173.261 328.581C166.462 332.573 159.051 335.408 151.327 336.982C114.314 344.372 96.4678 326.836 67.327 308.161C53.2948 298.713 38.7722 289.798 24.5777 280.612C-0.301425 264.515 -0.0197741 244.031 0.00226882 218.056L0.0549261 177.959L0.0806568 145.614C0.083106 138.161 -0.238979 129.168 0.886437 121.899C2.41352 112.636 5.8994 103.805 11.1113 95.9966C19.5391 83.5625 26.0258 80.6755 38.3583 72.4676C48.4184 65.8179 58.4296 59.0924 68.3894 52.2928L108.552 24.9092C116.507 19.5008 124.621 13.7341 132.978 8.8938C148.624 -0.167697 171.06 -2.52016 188.329 2.83077C201.244 6.83157 214.284 16.6303 225.45 24.2088L259.63 47.589L335.789 99.2241C333.187 101.365 330.364 103.175 327.627 105.14C308.682 118.75 289.034 131.622 270.312 145.511C251.382 133.364 232.442 119.275 213.706 106.72C204.562 100.593 190.646 89.7915 181.069 85.7852C175.139 83.3329 168.671 82.4702 162.305 83.2827C141.76 85.8324 104.18 119.318 84.6124 129.402C78.1599 132.728 73.0471 136.914 74.4671 144.825C77.4251 149.324 128.64 181.738 135.952 186.496C115.852 200.216 94.0284 213.707 73.5995 227.37C84.3295 236.074 98.8828 243.339 109.64 251.406C137.282 272.134 148.531 258.033 171.99 241.441L214.596 211.327L343.008 121.51L370.654 101.995C378.987 96.0352 387.339 89.6831 396.046 84.3028C419.626 69.7385 446.622 72.3102 473.257 72.3047L520.485 72.3004L641.562 72.3188C665.319 72.3176 690.442 71.9416 714.095 72.3488C697.998 97.0063 681.38 121.833 665.546 146.613C650.759 146.607 631.306 147.168 616.947 146.432Z" fill="url(#paint0_linear_2123_2)"/>
<path d="M509.965 167.209L592.914 167.116C592.957 227.919 593.722 290.545 592.804 351.212C567.068 352.161 536.135 351.377 509.897 351.34C510.755 290.771 510.075 227.941 509.965 167.209Z" fill="#15885D"/>
<defs>
<linearGradient id="paint0_linear_2123_2" x1="3.99999" y1="177" x2="688.5" y2="130.5" gradientUnits="userSpaceOnUse">
<stop stop-color="#74B28C"/>
<stop offset="1" stop-color="#15885D"/>
</linearGradient>
</defs>
</svg>
